<?xml version="1.0" encoding="UTF-8"?>
<svg width="1024" height="1024" xmlns="http://www.w3.org/2000/svg" xmlns:xlink="http://www.w3.org/1999/xlink">
 <title>up down arrow</title>
 <defs>
  <filter height="1.167241" y="-0.08362" width="1.287802" x="-0.143901" id="filter3244">
   <feGaussianBlur id="feGaussianBlur3246" stdDeviation="33.223268"/>
  </filter>
  <clipPath id="clipPath3268" clipPathUnits="userSpaceOnUse">
   <path fill="#ffffff" fill-rule="evenodd" stroke="#000000" stroke-miterlimit="4" id="path3270" d="m2414.270508,1461.413574c-4.779785,16.559082 215.34375,-221.010742 351.350586,-102.004883c136.006592,119.005615 189.842285,178.508545 189.842285,178.508545c0,0 -124.672363,-269.179688 -141.67334,-368.351318c-17.000977,-99.171387 -19.834473,-150.173828 -19.834473,-150.173828l164.341309,48.168945c0,0 -172.841553,-212.510254 -215.34375,-314.515137c-42.501953,-102.005127 -48.168945,-158.674561 -48.168945,-158.674561c0,0 -42.501953,192.676025 -119.005859,286.180664c-76.503418,93.504639 -116.762695,151.204346 -135.771973,176.261963c36.952148,-8.23584 21.422852,-3.602539 121.533691,-29.104004c48.031494,-12.234863 35.93457,-11.53125 106.569336,-25.905762c-56.871582,79.130371 -106.722168,132.689941 -157.500732,207.43042c-50.335205,74.088379 -96.338135,252.178955 -96.338135,252.178955z"/>
  </clipPath>
  <filter height="1.2687" y="-0.13435" width="1.337227" x="-0.168613" id="filter3435">
   <feGaussianBlur id="feGaussianBlur3437" stdDeviation="57.502646"/>
  </filter>
  <linearGradient id="linearGradient3187">
   <stop stop-color="#ffffff" id="stop3189" offset="0"/>
   <stop stop-color="#ffffff" stop-opacity="0" id="stop3191" offset="1"/>
  </linearGradient>
  <linearGradient id="linearGradient3177">
   <stop stop-color="#ffffff" id="stop3179" offset="0"/>
   <stop stop-color="#ffffff" stop-opacity="0" id="stop3181" offset="1"/>
  </linearGradient>
  <linearGradient y2="0.589554" x2="0.376792" y1="0.598327" x1="0.975099" id="linearGradient3183" xlink:href="#linearGradient3177"/>
  <linearGradient y2="0.546321" x2="0.678064" y1="0.564213" x1="1.118918" id="linearGradient3193" xlink:href="#linearGradient3187"/>
 </defs>
 <metadata id="metadata7">image/svg+xmlyves guillouFrench</metadata>
 <g>
  <title>Layer 1</title>
  <g id="layer1">
   <g id="g3449">
    <path opacity="0.686154" fill="#280b0b" fill-rule="evenodd" stroke="#000000" stroke-width="10" stroke-miterlimit="4" filter="url(#filter3435)" id="path3250" d="m413.580963,1011.660889c0,0 -6.136536,-53.249023 -48.638519,-155.254028c-42.502136,-102.005005 -215.343918,-314.515259 -215.343918,-314.515259l164.341385,48.168945c0,0 -2.833496,-51.002441 -19.83429,-150.17395c-17.000885,-99.171509 -141.673599,-368.351318 -141.673599,-368.351318c0,0 53.835999,59.50293 189.842606,178.508728c136.006592,119.005798 355.081818,-119.939148 351.295685,-104.109192c0.993774,-0.729248 6.660767,55.940247 49.162842,157.94519c42.502075,102.005005 215.343872,314.515259 215.343872,314.515259l-164.341431,-48.168945c0,0 2.833496,51.002441 19.834351,150.17395c17.000854,99.171509 141.673584,368.351196 141.673584,368.351196c0,0 -53.835999,-59.502808 -189.842651,-178.508667c-136.006592,-119.005737 -356.599915,117.977417 -351.819916,101.418091z"/>
    <g id="g3302">
     <g id="g3304">
      <path fill="#71c837" fill-rule="evenodd" stroke="#000000" stroke-width="10" stroke-miterlimit="4" d="m378.454468,944.713379c-4.779907,16.559082 215.343872,-221.010986 351.350464,-102.005127c136.006592,119.005859 189.842529,178.508789 189.842529,178.508789c0,0 -124.672607,-269.179688 -141.673584,-368.351318c-17.000732,-99.171387 -19.834229,-150.174072 -19.834229,-150.174072l164.341309,48.169189c0,0 -172.841797,-212.510437 -215.343872,-314.51532c-42.501953,-102.005005 -48.168945,-158.674438 -48.168945,-158.674438c0,0 -42.502075,192.676025 -119.005859,286.180603c-76.503662,93.504517 -116.762817,151.204468 -135.771973,176.262085c36.951904,-8.23584 21.422852,-3.602783 121.533569,-29.104004c48.031616,-12.235107 35.934692,-11.53125 106.569336,-25.905762c-56.871582,79.130371 -106.72229,132.689697 -157.500732,207.43042c-50.335205,74.088379 -96.338013,252.178955 -96.338013,252.178955z" id="path3306"/>
      <path fill="none" fill-rule="evenodd" stroke="#000000" stroke-width="20" stroke-miterlimit="4" filter="url(#filter3244)" clip-path="url(#clipPath3268)" d="m378.454468,944.713379c-4.779907,16.559082 215.343994,-221.010986 351.350586,-102.005127c136.006592,119.005859 189.842529,178.508789 189.842529,178.508789c0,0 -124.672607,-269.179688 -141.673584,-368.351318c-17.000732,-99.171387 -19.834229,-150.174072 -19.834229,-150.174072l164.341309,48.169189c0,0 -172.841797,-212.510437 -215.34375,-314.51532c-42.502075,-102.005005 -48.169067,-158.674438 -48.169067,-158.674438c0,0 -42.502075,192.676025 -119.005737,286.180603c-76.503906,93.504517 -116.763062,151.204468 -135.772217,176.262085c36.951904,-8.23584 21.422852,-3.602783 121.533569,-29.104004c48.031738,-12.235107 35.934814,-11.53125 106.569458,-25.905762c-56.871582,79.130371 -106.722168,132.689697 -157.500854,207.43042c-50.335205,74.088379 -96.338013,252.178955 -96.338013,252.178955z" id="path3308"/>
     </g>
     <g id="g3310">
      <path fill="#ff5555" fill-rule="evenodd" stroke="#000000" stroke-width="10" stroke-miterlimit="4" d="m658.029175,80.504578c4.779907,-16.559326 -215.343872,221.010742 -351.350464,102.004883c-136.006592,-119.005737 -189.842651,-178.508667 -189.842651,-178.508667c0,0 124.672729,269.179749 141.673706,368.351196c17.000732,99.171448 19.834229,150.174133 19.834229,150.174133l-164.341431,-48.169189c0,0 172.841797,212.510498 215.343994,314.515381c42.501953,102.004883 48.168945,158.674316 48.168945,158.674316c0,0 42.502075,-192.676025 119.005859,-286.18042c76.503662,-93.504639 116.762817,-151.20459 135.771973,-176.262207c-36.951904,8.23584 -21.422974,3.602783 -121.533569,29.104004c-48.031616,12.235107 -35.934692,11.53125 -106.569336,25.905762c56.871582,-79.130371 106.72229,-132.689697 157.500732,-207.430298c50.335205,-74.08844 96.338013,-252.178894 96.338013,-252.178894z" id="path3312"/>
      <path fill="none" fill-rule="evenodd" stroke="#000000" stroke-width="20" stroke-miterlimit="4" filter="url(#filter3244)" clip-path="url(#clipPath3268)" d="m658.027588,80.504517c4.780029,-16.559265 -215.343994,221.010742 -351.350586,102.004944c-136.006592,-119.005737 -189.842529,-178.508667 -189.842529,-178.508667c0,0 124.672607,269.179749 141.673584,368.351196c17.000732,99.171448 19.834229,150.174133 19.834229,150.174133l-164.341309,-48.169189c0,0 172.841797,212.510498 215.34375,314.515381c42.501953,102.004883 48.168945,158.674316 48.168945,158.674316c0,0 42.502197,-192.676025 119.005859,-286.18042c76.503906,-93.504639 116.763184,-151.20459 135.772217,-176.262207c-36.951904,8.23584 -21.422852,3.602783 -121.533447,29.104004c-48.031738,12.235107 -35.935059,11.53125 -106.56958,25.905762c56.871582,-79.130371 106.722168,-132.689697 157.500732,-207.430298c50.335449,-74.08844 96.338135,-252.178955 96.338135,-252.178955z" id="path3314"/>
     </g>
    </g>
   </g>
   <path fill="url(#linearGradient3183)" fill-rule="evenodd" stroke-width="1px" id="path2405" d="m446.096313,250.433105c0,0 -115.322266,215.662231 -104.861389,288.888184c10.460876,73.226074 34.90802,180.341309 24.600403,327.137207c-52.151001,-183.767334 -191.245178,-339.090698 -181.513245,-333.413696c50.212097,29.290405 121.345947,27.19812 121.345947,27.19812c0,0 -19.166626,-314.682983 -52.641388,-379.540283c-33.474731,-64.8573 -37.321991,-3.327026 -37.321991,-3.327026c0,0 75.570984,89.7948 230.391663,73.057495z"/>
   <path fill="url(#linearGradient3193)" fill-rule="evenodd" stroke-width="1px" id="path3185" d="m661.337158,158.110107c0,0 33.474731,150.636353 20.921692,263.613647c-12.55304,112.977173 -18.239624,330.746216 -18.239624,330.746216c0,0 -164.046692,-2.835938 -210.074463,55.744873c-46.027771,58.580688 -18.562134,51.20874 -18.562134,51.20874c0,0 209.217163,-259.429321 217.585815,-334.747559c8.368713,-75.318115 -54.396423,-79.502441 -58.58075,-142.267578c-4.184387,-62.765137 62.765137,-207.560913 66.949463,-224.29834z"/>
  </g>
 </g>
</svg>